<?xml version="1.0" encoding="utf-8"?>
<svg version="1.1" id="Layer_1" shape-rendering="auto"
	 xmlns="http://www.w3.org/2000/svg" xmlns:xlink="http://www.w3.org/1999/xlink" x="0px" y="0px" viewBox="0 0 50 50"
	 style="enable-background:new 0 0 50 50;" xml:space="preserve">
<style type="text/css">
	.st0{fill:none;}
	.st1{stroke:#000000;}
</style>
<rect class="st0" width="50" height="50"/>
<path class="st1" d="M35,21.1v-3.2l3.1-1.6l3.1,1.6v3.2l-3.1,1.6L35,21.1z"/>
<path class="st1" d="M44.7,22.6l0-1.9l1.9-1l1.9,1l0,1.9l-1.9,1L44.7,22.6z"/>
<path class="st1" d="M42,11.9l0,1.1l-1.1,0.6l-1.1-0.6l0-1.1l1.1-0.6L42,11.9z"/>
<path class="st1" d="M30.9,17l-0.1,1.1l-1.1,0.5l-1.1-0.6l0.1-1.1l1.1-0.5L30.9,17z"/>
<path class="st1" d="M45,8.6l0-0.2l0.3-0.2l0.3,0.2l0,0.2l-0.3,0.2L45,8.6z"/>
<path class="st1" d="M36.6,6.2l0-1.1l1.1-0.5l1.1,0.6l0,1.1l-1.1,0.5L36.6,6.2z"/>
<path d="M13.5,5.2l-0.1,0l-0.1,0.1L5.6,8.8L5.4,8.9L5.3,9.1L0.4,22.8L0.3,23l0.1,0.2l8.9,21.2l0.1,0.3h0.3h26.5h0.2l0.2-0.2l6.3-8.1
	l0.1-0.1v-0.2v-9.7v-0.1L43,26.2l-1.7-3.1l-0.9,0.5l1.7,3v8.9l-21-5.6L14.2,6.2l17.6,1.5l4.4,8l0.9-0.5L32.5,7l-0.1-0.2l-0.3,0
	L13.5,5.2z M20.1,30.2L13.2,6.4l-7,3.3L1.4,23l8.5,20.2L20.1,30.2z M36,43.7H10.8l10-12.8l20.9,5.6L36,43.7z"/>
</svg>
