<?xml version="1.0" standalone="no"?>
<!DOCTYPE svg PUBLIC "-//W3C//DTD SVG 20010904//EN"
 "http://www.w3.org/TR/2001/REC-SVG-20010904/DTD/svg10.dtd">
<svg version="1.0" xmlns="http://www.w3.org/2000/svg"
 width="700.000000pt" height="700.000000pt" viewBox="0 0 700.000000 700.000000"
 preserveAspectRatio="xMidYMid meet">
<metadata>
Created by potrace 1.11, written by Peter Selinger 2001-2013
</metadata>
<g transform="translate(0.000000,700.000000) scale(0.100000,-0.100000)"
fill="#000000" stroke="none">
<path d="M5167 6374 l-108 -54 3 -117 3 -117 104 -58 c57 -32 108 -58 112 -58
5 0 59 25 119 55 l110 55 0 118 -1 117 -105 58 c-58 31 -110 57 -117 56 -7 0
-61 -25 -120 -55z"/>
<path d="M1323 6016 c-304 -143 -557 -265 -562 -271 -11 -11 -711 -1950 -711
-1968 0 -7 285 -689 633 -1517 l632 -1505 1896 -3 1895 -2 457 582 457 583 0
705 0 704 -121 223 -121 222 -59 -30 c-33 -16 -59 -34 -59 -39 0 -5 50 -100
110 -210 l110 -200 0 -625 c0 -344 -2 -625 -4 -625 -8 0 -2930 780 -2933 783
-6 6 -955 3298 -952 3301 9 7 2450 -211 2458 -220 4 -5 142 -254 305 -554 163
-299 299 -546 300 -548 2 -2 31 12 64 30 l60 34 -322 589 c-237 433 -328 591
-342 593 -10 1 -590 51 -1289 112 -698 60 -1288 111 -1310 113 -36 4 -101 -24
-592 -257z m527 81 c0 -2 216 -749 479 -1661 l479 -1657 -710 -910 c-391 -501
-714 -906 -718 -902 -11 13 -1173 2786 -1177 2808 -2 11 147 436 330 945 l334
925 479 227 c428 203 504 237 504 225z m2540 -3806 c789 -211 1436 -385 1438
-386 2 -2 -175 -231 -394 -509 l-397 -506 -1763 0 -1764 0 186 238 c102 130
416 533 697 894 458 588 515 658 537 655 14 -2 671 -176 1460 -386z"/>
<path d="M6273 5890 l-53 -30 0 -55 0 -55 61 -30 61 -31 51 29 52 29 3 59 3
59 -56 28 c-30 15 -59 27 -63 27 -4 0 -31 -14 -59 -30z"/>
<path d="M5617 5443 l-108 -56 3 -121 3 -120 107 -55 106 -56 111 54 110 55 6
50 c4 28 5 82 3 120 l-3 70 -110 58 c-60 32 -112 58 -115 58 -3 0 -54 -26
-113 -57z"/>
<path d="M5082 4667 l-252 -132 2 -263 3 -264 245 -128 c135 -71 250 -129 255
-130 6 0 120 57 255 128 l245 128 3 266 2 266 -246 128 c-136 71 -250 130
-253 131 -3 1 -120 -57 -259 -130z"/>
<path d="M4060 4731 l-105 -48 -7 -114 c-3 -62 -4 -117 -2 -120 2 -4 51 -35
108 -69 l105 -61 113 50 113 50 7 53 c3 29 6 83 7 119 l1 67 -103 61 c-57 34
-110 61 -118 60 -8 0 -61 -22 -119 -48z"/>
<path d="M6347 4237 l-167 -91 2 -175 3 -175 160 -83 c88 -45 166 -83 174 -83
8 0 88 39 178 87 l163 88 0 86 c0 47 -3 127 -7 178 l-6 92 -166 83 -166 83
-168 -90z"/>
</g>
</svg>
